<svg width="153" height="41" viewBox="0 0 153 41" fill="none" xmlns="http://www.w3.org/2000/svg">
<path d="M136.057 31.7253C134.617 30.8613 133.465 29.7093 132.601 28.2693C131.737 26.8293 131.341 25.2453 131.341 23.5173C131.341 21.8253 131.737 20.2413 132.601 18.8013C133.465 17.3613 134.617 16.2093 136.057 15.3453C137.497 14.4813 139.081 14.0493 140.809 14.0493C142.501 14.0493 144.085 14.4813 145.525 15.3453C146.965 16.2093 148.117 17.3613 148.981 18.8013C149.845 20.2413 150.277 21.8253 150.277 23.5173C150.277 25.2453 149.845 26.8293 148.981 28.2693C148.117 29.7093 146.965 30.8613 145.525 31.7253C144.085 32.5893 142.501 32.9853 140.809 32.9853C139.081 32.9853 137.497 32.5893 136.057 31.7253ZM143.293 27.8733C144.049 27.4413 144.661 26.8293 145.129 26.0373C145.561 25.2813 145.813 24.4533 145.813 23.5173C145.813 22.6173 145.561 21.7893 145.129 20.9973C144.661 20.2413 144.049 19.6293 143.293 19.1613C142.501 18.7293 141.673 18.4773 140.773 18.4773C139.837 18.4773 139.009 18.7293 138.253 19.1613C137.461 19.6293 136.849 20.2413 136.417 20.9973C135.985 21.7893 135.769 22.6173 135.769 23.5173C135.769 24.4533 135.985 25.2813 136.417 26.0373C136.849 26.8293 137.461 27.4413 138.253 27.8733C139.009 28.3053 139.837 28.5213 140.773 28.5213C141.673 28.5213 142.501 28.3053 143.293 27.8733Z" fill="#8895AA"/>
<path d="M124.771 10.8092C124.267 10.3772 124.051 9.72921 124.051 8.93721C124.051 8.14521 124.267 7.49722 124.771 7.02921C125.239 6.59721 125.887 6.34521 126.751 6.34521C127.579 6.34521 128.227 6.59721 128.731 7.02921C129.199 7.49722 129.451 8.14521 129.451 8.93721C129.451 9.72921 129.199 10.3412 128.695 10.8092C128.191 11.2772 127.543 11.4932 126.751 11.4932C125.887 11.4932 125.239 11.2772 124.771 10.8092ZM124.483 32.4812V14.4812H128.947V32.4812H124.483Z" fill="#8895AA"/>
<path d="M115.75 7.28125H120.214V32.4813H115.75V30.7533C114.922 31.4733 114.022 32.0493 113.014 32.4093C112.006 32.8053 110.962 32.9853 109.882 32.9853C108.046 32.9853 106.462 32.5893 105.094 31.7613C103.726 30.9693 102.646 29.8173 101.926 28.3773C101.206 26.9373 100.846 25.3173 100.846 23.5173C100.846 21.7172 101.206 20.0973 101.926 18.6573C102.646 17.2173 103.726 16.1013 105.094 15.2733C106.462 14.4453 108.046 14.0133 109.882 14.0133C110.962 14.0133 111.97 14.2293 112.978 14.6253C113.986 15.0213 114.886 15.5613 115.75 16.2453V7.28125ZM113.122 28.0533C113.914 27.6213 114.562 26.9733 115.03 26.1813C115.498 25.3893 115.75 24.4893 115.75 23.4813C115.75 21.9692 115.21 20.7453 114.202 19.7733C113.194 18.8373 111.934 18.3333 110.458 18.3333C108.946 18.3333 107.686 18.8373 106.714 19.8093C105.742 20.7813 105.274 22.0053 105.274 23.5173C105.274 25.0292 105.742 26.2892 106.714 27.2612C107.686 28.2332 108.946 28.7013 110.458 28.7013C111.43 28.7013 112.33 28.4853 113.122 28.0533Z" fill="#8895AA"/>
<path d="M93.6515 14.4812H98.1155V32.4812H93.6515V30.9692C93.0035 31.5812 92.2835 32.0492 91.4915 32.4092C90.6995 32.7692 89.8355 32.9492 88.9715 32.9492C87.8915 32.9492 86.8115 32.7332 85.7315 32.3012C84.6515 31.8692 83.7155 31.0412 82.9235 29.8892C82.1315 28.7372 81.7715 27.1892 81.7715 25.2452V14.4812H86.2355V25.2452C86.2355 26.6132 86.5955 27.5852 87.3515 28.1612C88.1075 28.7372 89.0075 29.0252 90.0155 29.0252C91.0235 29.0252 91.8515 28.7012 92.5715 27.9812C93.2915 27.2612 93.6515 26.1452 93.6515 24.5612V14.4812Z" fill="#8895AA"/>
<path d="M75.8 28.0173C76.16 28.3413 76.772 28.4853 77.636 28.4853C78.14 28.4853 78.68 28.4493 79.292 28.3773V32.4813C78.14 32.6253 77.204 32.6613 76.484 32.6613C74.54 32.6613 73.1 32.2293 72.164 31.3653C71.228 30.5013 70.76 28.9173 70.76 26.6133V18.4773H67.376V14.4813H70.76V10.0533L75.224 8.54126V14.4813H79.22V18.4773H75.224V26.3253C75.224 27.1533 75.404 27.7293 75.8 28.0173Z" fill="#8895AA"/>
<path d="M56.9506 20.6732C57.5266 20.9252 58.4266 21.1772 59.6506 21.4292C61.0186 21.7172 62.2066 22.0412 63.1426 22.4012C64.0786 22.7612 64.8706 23.3372 65.5546 24.1292C66.2386 24.9212 66.5986 25.9652 66.5986 27.2612C66.5986 28.4492 66.2386 29.4572 65.5186 30.3212C64.7986 31.1852 63.8626 31.8692 62.7106 32.3012C61.5226 32.7332 60.2266 32.9492 58.8586 32.9492C56.9506 32.9492 55.3306 32.5892 53.9626 31.8692C52.5946 31.1492 51.6226 30.1412 50.9746 28.7732L54.6466 26.8652C55.2946 28.5212 56.6986 29.3492 58.8586 29.3492C59.7946 29.3492 60.5866 29.1692 61.2706 28.8092C61.9186 28.4492 62.2786 27.9452 62.2786 27.2612C62.2786 26.6852 61.9546 26.2892 61.3426 26.0012C60.7306 25.7132 59.7586 25.4252 58.3906 25.0652C56.9506 24.7412 55.7986 24.4172 54.9346 24.0572C54.0346 23.7332 53.2786 23.2292 52.6306 22.5092C51.9826 21.7892 51.6586 20.8532 51.6586 19.6652C51.6586 18.5132 51.9826 17.5412 52.6306 16.6772C53.2786 15.8132 54.1426 15.1652 55.2586 14.6972C56.3386 14.2652 57.5626 14.0132 58.8946 14.0132C60.4426 14.0132 61.8466 14.3372 63.0706 14.9852C64.2946 15.6332 65.2666 16.5692 65.9506 17.7572L62.3146 19.5932C61.6666 18.2612 60.5506 17.5772 58.8946 17.5772C58.0306 17.5772 57.3826 17.7572 56.8786 18.1172C56.3746 18.4772 56.1226 18.9452 56.1226 19.5212C56.1226 20.0252 56.3746 20.4212 56.9506 20.6732Z" fill="#8895AA"/>
<mask id="mask0_3778_20899" style="mask-type:alpha" maskUnits="userSpaceOnUse" x="0" y="0" width="40" height="40">
<circle cx="20" cy="20" r="20" fill="#D9D9D9"/>
</mask>
<g mask="url(#mask0_3778_20899)">
<rect x="-5.3252" y="25.1494" width="20.8878" height="20.8878" rx="2.19817" transform="rotate(-15 -5.3252 25.1494)" fill="#8895AA"/>
<rect x="19.7432" y="25.1494" width="20.8878" height="20.8878" rx="2.19817" transform="rotate(-15 19.7432 25.1494)" fill="#8895AA"/>
<rect x="19.7432" y="0.0808105" width="20.8878" height="20.8878" rx="2.19817" transform="rotate(-15 19.7432 0.0808105)" fill="#8895AA"/>
<rect x="-5.3252" y="0.0808105" width="20.8878" height="20.8878" rx="2.19817" transform="rotate(-15 -5.3252 0.0808105)" fill="#8895AA"/>
</g>
</svg>
