<svg width="162" height="34" viewBox="0 0 162 34" fill="none" xmlns="http://www.w3.org/2000/svg">
<path d="M159.555 15.8032L155.741 16.0379C155.676 15.7119 155.536 15.4185 155.32 15.1577C155.105 14.8903 154.822 14.6784 154.469 14.5219C154.124 14.3589 153.71 14.2774 153.227 14.2774C152.582 14.2774 152.037 14.4144 151.594 14.6882C151.151 14.9555 150.929 15.3142 150.929 15.7641C150.929 16.1227 151.072 16.4259 151.359 16.6737C151.646 16.9215 152.138 17.1203 152.836 17.2703L155.555 17.818C157.016 18.118 158.105 18.6005 158.822 19.2656C159.539 19.9307 159.898 20.8044 159.898 21.8868C159.898 22.8714 159.608 23.7354 159.027 24.4787C158.453 25.222 157.665 25.8023 156.66 26.2196C155.663 26.6304 154.512 26.8358 153.208 26.8358C151.219 26.8358 149.635 26.4218 148.454 25.5937C147.281 24.7591 146.593 23.6245 146.391 22.19L150.489 21.9748C150.613 22.5812 150.913 23.0442 151.389 23.3637C151.865 23.6767 152.474 23.8332 153.218 23.8332C153.948 23.8332 154.535 23.693 154.978 23.4126C155.428 23.1257 155.656 22.7573 155.663 22.3074C155.656 21.9292 155.496 21.6195 155.183 21.3782C154.87 21.1304 154.388 20.9413 153.736 20.8109L151.134 20.2925C149.667 19.9991 148.575 19.4905 147.858 18.7668C147.147 18.043 146.792 17.1203 146.792 15.9988C146.792 15.0338 147.052 14.2024 147.574 13.5047C148.102 12.8071 148.842 12.2691 149.794 11.8909C150.753 11.5127 151.874 11.3237 153.159 11.3237C155.056 11.3237 156.55 11.7247 157.638 12.5267C158.734 13.3287 159.373 14.4209 159.555 15.8032Z" fill="#E4E7EC"/>
<path d="M144.09 15.8032L140.275 16.0379C140.21 15.7119 140.07 15.4185 139.855 15.1577C139.639 14.8903 139.356 14.6784 139.004 14.5219C138.658 14.3589 138.244 14.2774 137.762 14.2774C137.116 14.2774 136.572 14.4144 136.128 14.6882C135.685 14.9555 135.463 15.3142 135.463 15.7641C135.463 16.1227 135.606 16.4259 135.893 16.6737C136.18 16.9215 136.673 17.1203 137.37 17.2703L140.089 17.818C141.55 18.118 142.639 18.6005 143.356 19.2656C144.073 19.9307 144.432 20.8044 144.432 21.8868C144.432 22.8714 144.142 23.7354 143.561 24.4787C142.988 25.222 142.199 25.8023 141.195 26.2196C140.197 26.6304 139.046 26.8358 137.742 26.8358C135.753 26.8358 134.169 26.4218 132.989 25.5937C131.815 24.7591 131.127 23.6245 130.925 22.19L135.023 21.9748C135.147 22.5812 135.447 23.0442 135.923 23.3637C136.399 23.6767 137.008 23.8332 137.752 23.8332C138.482 23.8332 139.069 23.693 139.512 23.4126C139.962 23.1257 140.19 22.7573 140.197 22.3074C140.19 21.9292 140.031 21.6195 139.718 21.3782C139.405 21.1304 138.922 20.9413 138.27 20.8109L135.668 20.2925C134.201 19.9991 133.109 19.4905 132.392 18.7668C131.681 18.043 131.326 17.1203 131.326 15.9988C131.326 15.0338 131.587 14.2024 132.108 13.5047C132.636 12.8071 133.376 12.2691 134.328 11.8909C135.287 11.5127 136.409 11.3237 137.693 11.3237C139.591 11.3237 141.084 11.7247 142.173 12.5267C143.268 13.3287 143.907 14.4209 144.09 15.8032Z" fill="#E4E7EC"/>
<path d="M121.976 26.8358C120.431 26.8358 119.101 26.5228 117.986 25.8969C116.877 25.2644 116.023 24.3711 115.423 23.217C114.823 22.0563 114.523 20.6838 114.523 19.0993C114.523 17.554 114.823 16.1977 115.423 15.0305C116.023 13.8634 116.868 12.9538 117.956 12.3017C119.052 11.6497 120.336 11.3237 121.81 11.3237C122.801 11.3237 123.724 11.4834 124.578 11.8029C125.439 12.1159 126.189 12.5886 126.828 13.2211C127.473 13.8536 127.975 14.6491 128.334 15.6076C128.692 16.5596 128.872 17.6746 128.872 18.9526V20.0969H116.186V17.5148H124.95C124.95 16.9149 124.819 16.3835 124.558 15.9206C124.298 15.4576 123.936 15.0957 123.473 14.8349C123.016 14.5676 122.485 14.4339 121.879 14.4339C121.246 14.4339 120.685 14.5806 120.196 14.874C119.714 15.1609 119.336 15.5489 119.062 16.0379C118.788 16.5205 118.648 17.0584 118.641 17.6518V20.1067C118.641 20.85 118.778 21.4923 119.052 22.0335C119.332 22.5747 119.727 22.992 120.235 23.2854C120.744 23.5789 121.347 23.7256 122.045 23.7256C122.508 23.7256 122.932 23.6604 123.316 23.53C123.701 23.3995 124.03 23.2039 124.304 22.9431C124.578 22.6823 124.787 22.3628 124.93 21.9846L128.784 22.2389C128.588 23.1648 128.187 23.9733 127.581 24.6645C126.981 25.3492 126.205 25.8838 125.253 26.2685C124.307 26.6467 123.215 26.8358 121.976 26.8358Z" fill="#E4E7EC"/>
<path d="M102.163 17.8572V26.5424H97.9961V11.5193H101.967V14.1698H102.143C102.476 13.2961 103.033 12.6049 103.816 12.0963C104.598 11.5812 105.547 11.3237 106.662 11.3237C107.705 11.3237 108.615 11.5519 109.391 12.0083C110.167 12.4647 110.77 13.1168 111.2 13.9644C111.63 14.8056 111.846 15.8097 111.846 16.9769V26.5424H107.679V17.7202C107.685 16.8008 107.451 16.0836 106.975 15.5685C106.499 15.0468 105.843 14.786 105.009 14.786C104.448 14.786 103.953 14.9066 103.522 15.1479C103.098 15.3892 102.766 15.7413 102.525 16.2042C102.29 16.6607 102.169 17.2116 102.163 17.8572Z" fill="#E4E7EC"/>
<path d="M90.4915 26.5424V11.5193H94.658V26.5424H90.4915ZM92.5845 9.5827C91.9651 9.5827 91.4337 9.3773 90.9903 8.96651C90.5534 8.5492 90.335 8.05039 90.335 7.47007C90.335 6.89627 90.5534 6.40397 90.9903 5.99318C91.4337 5.57587 91.9651 5.36722 92.5845 5.36722C93.204 5.36722 93.7321 5.57587 94.169 5.99318C94.6124 6.40397 94.8341 6.89627 94.8341 7.47007C94.8341 8.05039 94.6124 8.5492 94.169 8.96651C93.7321 9.3773 93.204 9.5827 92.5845 9.5827Z" fill="#E4E7EC"/>
<path d="M87.5252 15.8032L83.7107 16.0379C83.6455 15.7119 83.5053 15.4185 83.2901 15.1577C83.0749 14.8903 82.7913 14.6784 82.4392 14.5219C82.0936 14.3589 81.6796 14.2774 81.1971 14.2774C80.5515 14.2774 80.0071 14.4144 79.5637 14.6882C79.1203 14.9555 78.8986 15.3142 78.8986 15.7641C78.8986 16.1227 79.042 16.4259 79.3289 16.6737C79.6158 16.9215 80.1081 17.1203 80.8058 17.2703L83.5249 17.818C84.9854 18.118 86.0744 18.6005 86.7916 19.2656C87.5089 19.9307 87.8675 20.8044 87.8675 21.8868C87.8675 22.8714 87.5773 23.7354 86.997 24.4787C86.4232 25.222 85.6342 25.8023 84.6301 26.2196C83.6324 26.6304 82.4816 26.8358 81.1775 26.8358C79.1888 26.8358 77.6043 26.4218 76.4241 25.5937C75.2504 24.7591 74.5625 23.6245 74.3604 22.19L78.4585 21.9748C78.5823 22.5812 78.8823 23.0442 79.3583 23.3637C79.8343 23.6767 80.4439 23.8332 81.1873 23.8332C81.9176 23.8332 82.5044 23.693 82.9478 23.4126C83.3977 23.1257 83.6259 22.7573 83.6324 22.3074C83.6259 21.9292 83.4662 21.6195 83.1532 21.3782C82.8402 21.1304 82.3577 20.9413 81.7057 20.8109L79.104 20.2925C77.6369 19.9991 76.5447 19.4905 75.8275 18.7668C75.1167 18.043 74.7614 17.1203 74.7614 15.9988C74.7614 15.0338 75.0222 14.2024 75.5438 13.5047C76.072 12.8071 76.812 12.2691 77.764 11.8909C78.7225 11.5127 79.8441 11.3237 81.1286 11.3237C83.026 11.3237 84.5192 11.7247 85.6081 12.5267C86.7036 13.3287 87.3426 14.4209 87.5252 15.8032Z" fill="#E4E7EC"/>
<path d="M67.5266 20.1458V11.5193H71.6931V26.5424H67.6928V23.8136H67.5363C67.1973 24.6939 66.6333 25.4013 65.8443 25.936C65.0618 26.4707 64.1066 26.738 62.9785 26.738C61.9744 26.738 61.0909 26.5098 60.328 26.0534C59.5651 25.5969 58.9685 24.9482 58.5381 24.107C58.1143 23.2659 57.8991 22.2585 57.8926 21.0848V11.5193H62.0592V20.3415C62.0657 21.2282 62.3037 21.9292 62.7731 22.4443C63.2426 22.9594 63.8718 23.217 64.6608 23.217C65.1629 23.217 65.6324 23.1029 66.0692 22.8747C66.5061 22.6399 66.8582 22.2943 67.1256 21.8379C67.3994 21.3815 67.5331 20.8174 67.5266 20.1458Z" fill="#E4E7EC"/>
<path d="M40.4609 26.5424V6.51157H44.6275V14.0427H44.7547C44.9372 13.6384 45.2013 13.2276 45.5469 12.8103C45.899 12.3865 46.3554 12.0344 46.9162 11.754C47.4835 11.4671 48.1877 11.3237 49.0288 11.3237C50.1243 11.3237 51.1349 11.6106 52.0608 12.1844C52.9867 12.7516 53.7268 13.6091 54.2811 14.7567C54.8353 15.8978 55.1124 17.329 55.1124 19.0504C55.1124 20.7262 54.8418 22.1411 54.3006 23.2952C53.7659 24.4428 53.0356 25.3133 52.1097 25.9067C51.1904 26.4935 50.1601 26.7869 49.019 26.7869C48.2105 26.7869 47.5226 26.6533 46.9553 26.3859C46.3946 26.1186 45.9349 25.7828 45.5762 25.3785C45.2176 24.9677 44.9438 24.5537 44.7547 24.1364H44.5688V26.5424H40.4609ZM44.5395 19.0309C44.5395 19.9242 44.6634 20.7033 44.9112 21.3684C45.1589 22.0335 45.5176 22.5519 45.987 22.9236C46.4565 23.2887 47.027 23.4713 47.6987 23.4713C48.3768 23.4713 48.9506 23.2855 49.4201 22.9138C49.8895 22.5356 50.2449 22.014 50.4861 21.3489C50.7339 20.6773 50.8578 19.9046 50.8578 19.0309C50.8578 18.1636 50.7372 17.4007 50.4959 16.7422C50.2547 16.0836 49.8993 15.5685 49.4298 15.1968C48.9604 14.8252 48.3833 14.6393 47.6987 14.6393C47.0205 14.6393 46.4467 14.8186 45.9772 15.1773C45.5143 15.5359 45.1589 16.0445 44.9112 16.703C44.6634 17.3616 44.5395 18.1375 44.5395 19.0309Z" fill="#E4E7EC"/>
<path fill-rule="evenodd" clip-rule="evenodd" d="M16.6672 12.3658L21.1743 16.8729L16.8828 21.1643L12.3757 16.6572L16.6672 12.3658ZM12.0461 7.74473L9.22036 4.91896C9.05917 4.75778 9.05917 4.49644 9.22036 4.33526L13.2577 0.297922C13.4189 0.136736 13.6802 0.136736 13.8414 0.297922L27.6437 14.1002C29.175 15.6315 29.175 18.1142 27.6437 19.6455L21.5039 25.7853L24.3296 28.6111C24.4908 28.7723 24.4908 29.0336 24.3296 29.1948L20.2923 33.2322C20.1311 33.3933 19.8698 33.3933 19.7086 33.2322L5.90627 19.4298C4.37499 17.8986 4.37499 15.4159 5.90627 13.8846L12.0461 7.74473Z" fill="#E4E7EC"/>
</svg>
