<svg width="148" height="36" viewBox="0 0 148 36" fill="none" xmlns="http://www.w3.org/2000/svg">
<path d="M139.337 27.0922C137.805 27.0922 136.462 26.7669 135.307 26.1162C134.153 25.4445 133.261 24.5105 132.631 23.3141C132.001 22.1177 131.687 20.7114 131.687 19.0952C131.687 17.4999 132.001 16.1041 132.631 14.9077C133.261 13.6903 134.153 12.7458 135.307 12.0741C136.462 11.3815 137.805 11.0351 139.337 11.0351C140.89 11.0351 142.234 11.3815 143.367 12.0741C144.522 12.7668 145.414 13.7218 146.043 14.9392C146.673 16.1356 146.988 17.5104 146.988 19.0637C146.988 19.2946 146.977 19.5254 146.957 19.7563C146.957 19.9662 146.936 20.1446 146.894 20.2916H135.055V17.2061H143.777L143.147 18.6859C143.147 17.3845 142.832 16.3245 142.202 15.5059C141.594 14.6873 140.639 14.278 139.337 14.278C138.204 14.278 137.291 14.6349 136.598 15.3485C135.905 16.0412 135.559 16.9752 135.559 18.1506V19.8193C135.559 21.0577 135.905 22.0337 136.598 22.7474C137.312 23.44 138.277 23.7864 139.495 23.7864C140.565 23.7864 141.405 23.566 142.013 23.1252C142.622 22.6844 143.147 22.1387 143.588 21.488L146.453 23.1252C145.76 24.4055 144.816 25.3921 143.619 26.0847C142.444 26.7564 141.016 27.0922 139.337 27.0922Z" fill="#E4E7EC"/>
<path d="M125.138 11.3815L126.177 15.6319V26.7774H122.053V11.3815H125.138ZM125.327 17.7413L124.571 17.395V14.2465L124.855 13.9002C125.086 13.5224 125.432 13.1131 125.894 12.6723C126.377 12.2315 126.922 11.8537 127.531 11.5389C128.161 11.203 128.811 11.0351 129.483 11.0351C129.819 11.0351 130.123 11.0561 130.396 11.0981C130.669 11.1401 130.879 11.2135 131.026 11.3185V15.0651H130.018C128.654 15.0651 127.605 15.2855 126.87 15.7263C126.135 16.1461 125.621 16.8178 125.327 17.7413Z" fill="#E4E7EC"/>
<path d="M109.75 27.1552C108.596 27.1552 107.672 26.9768 106.98 26.6199C106.287 26.2631 105.752 25.7908 105.374 25.2031C105.017 24.5944 104.776 23.9018 104.65 23.1252C104.524 22.3485 104.461 21.5404 104.461 20.7009V11.3814H108.585V20.7323C108.585 21.6769 108.785 22.3066 109.184 22.6214C109.603 22.9363 110.097 23.0937 110.663 23.0937C111.188 23.0937 111.713 22.9992 112.238 22.8103C112.762 22.6214 113.256 22.3485 113.717 21.9917C114.2 21.6139 114.599 21.1836 114.914 20.7009L115.418 22.8733H114.41V11.3814H118.535V26.7774H115.449L114.599 23.8493L115.921 23.8808C115.397 24.4895 114.798 25.0457 114.127 25.5495C113.476 26.0532 112.773 26.452 112.017 26.7459C111.283 27.0187 110.527 27.1552 109.75 27.1552Z" fill="#E4E7EC"/>
<path d="M99.0216 27.0607C97.4474 27.0607 96.1985 26.6514 95.275 25.8328C94.3724 24.9932 93.9211 23.6604 93.9211 21.8343V11.5704L93.8582 11.3814L94.7083 7.76073H98.0456V21.1731C98.0456 21.8448 98.203 22.3381 98.5179 22.6529C98.8537 22.9468 99.2735 23.0937 99.7773 23.0937C100.113 23.0937 100.417 23.0727 100.69 23.0307C100.963 22.9677 101.205 22.9048 101.414 22.8418V26.6829C101.079 26.8089 100.722 26.9033 100.344 26.9663C99.9662 27.0292 99.5254 27.0607 99.0216 27.0607ZM91.5283 15.1911V11.3814H101.414V15.1911H91.5283Z" fill="#E4E7EC"/>
<path d="M84.482 11.0351C85.5315 11.0351 86.3711 11.2135 87.0008 11.5704C87.6515 11.9272 88.1342 12.4099 88.4491 13.0186C88.7849 13.6273 89.0053 14.32 89.1103 15.0966C89.2152 15.8523 89.2677 16.6394 89.2677 17.458V26.7774H85.1432V17.4265C85.1432 16.4819 84.9543 15.8523 84.5765 15.5374C84.2197 15.2226 83.7579 15.0651 83.1912 15.0651C82.6664 15.0651 82.1312 15.1701 81.5855 15.38C81.0397 15.5689 80.5255 15.8523 80.0427 16.2301C79.5809 16.5869 79.1821 16.9962 78.8463 17.458L78.3111 15.317H79.3501V26.7774H75.2256V11.3815H78.3111L79.1611 14.341L77.8388 14.278C78.3845 13.6483 79.0037 13.0921 79.6964 12.6094C80.41 12.1266 81.1657 11.7488 81.9633 11.4759C82.7609 11.1821 83.6005 11.0351 84.482 11.0351Z" fill="#E4E7EC"/>
<path d="M65.0531 27.0922C63.5208 27.0922 62.1775 26.7669 61.0231 26.1162C59.8686 25.4445 58.9766 24.5105 58.3469 23.3141C57.7172 22.1177 57.4023 20.7114 57.4023 19.0952C57.4023 17.4999 57.7172 16.1041 58.3469 14.9077C58.9766 13.6903 59.8686 12.7458 61.0231 12.0741C62.1775 11.3815 63.5208 11.0351 65.0531 11.0351C66.6063 11.0351 67.9497 11.3815 69.0831 12.0741C70.2375 12.7668 71.1296 13.7218 71.7593 14.9392C72.389 16.1356 72.7038 17.5104 72.7038 19.0637C72.7038 19.2946 72.6933 19.5254 72.6723 19.7563C72.6723 19.9662 72.6513 20.1446 72.6094 20.2916H60.7712V17.2061H69.4924L68.8627 18.6859C68.8627 17.3845 68.5479 16.3245 67.9182 15.5059C67.3095 14.6873 66.3544 14.278 65.0531 14.278C63.9196 14.278 63.0066 14.6349 62.3139 15.3485C61.6213 16.0412 61.2749 16.9752 61.2749 18.1506V19.8193C61.2749 21.0577 61.6213 22.0337 62.3139 22.7474C63.0276 23.44 63.9931 23.7864 65.2105 23.7864C66.281 23.7864 67.1206 23.566 67.7293 23.1252C68.338 22.6844 68.8627 22.1387 69.3035 21.488L72.1686 23.1252C71.4759 24.4055 70.5314 25.3921 69.335 26.0847C68.1595 26.7564 66.7323 27.0922 65.0531 27.0922Z" fill="#E4E7EC"/>
<path d="M56.7709 11.3814L51.1352 26.7774H47.1681L41.249 11.3814H45.5939L49.6239 23.1566H48.6479L52.5205 11.3814H56.7709Z" fill="#E4E7EC"/>
<path fill-rule="evenodd" clip-rule="evenodd" d="M11.6194 2.69865C11.0829 2.69865 10.6479 3.13362 10.6479 3.67017V12.8996C5.01423 12.8997 0.447266 17.4667 0.447266 23.1005C0.447266 28.7343 5.01436 33.3014 10.6482 33.3014H19.8776C20.4141 33.3014 20.8491 32.8664 20.8491 32.3298V23.1005C26.4828 23.1003 31.0497 18.5333 31.0497 12.8996C31.0497 7.26575 26.4826 2.69865 20.8488 2.69865H11.6194ZM20.8491 23.1005V13.8711C20.8491 13.3345 20.4141 12.8996 19.8776 12.8996H10.6482C10.6481 12.8996 10.648 12.8996 10.6479 12.8996V22.1289C10.6479 22.6655 11.0829 23.1005 11.6194 23.1005H20.8488C20.8489 23.1005 20.849 23.1005 20.8491 23.1005Z" fill="#E4E7EC"/>
<path d="M11.5095 2.69865C11.0334 2.69865 10.6475 3.08461 10.6475 3.5607L10.6475 12.8996H19.9863C20.4624 12.8996 20.8484 13.2855 20.8484 13.7616L20.8484 23.1005C26.4822 23.1005 31.0493 18.5334 31.0493 12.8996C31.0493 7.26575 26.4822 2.69865 20.8484 2.69865H11.5095Z" fill="#E4E7EC"/>
</svg>
