<svg width="220" height="41" viewBox="0 0 220 41" fill="none" xmlns="http://www.w3.org/2000/svg">
<path d="M214.578 12H219.822L212.906 31C210.93 36.472 207.7 38.866 202.874 38.6V34.04C205.572 34.078 206.94 32.938 207.852 30.392L200.062 12H205.42L210.36 24.768L214.578 12Z" fill="#8895AA"/>
<path d="M191.23 11.468C195.258 11.468 198.412 14.28 198.412 19.334V31H193.51V19.942C193.51 17.358 191.952 16.028 189.748 16.028C187.354 16.028 185.568 17.434 185.568 20.74V31H180.666V12H185.568V14.128C186.708 12.418 188.684 11.468 191.23 11.468Z" fill="#8895AA"/>
<path d="M171.319 12H176.221V31H171.319V28.758C169.951 30.468 167.899 31.532 165.125 31.532C160.071 31.532 155.891 27.162 155.891 21.5C155.891 15.838 160.071 11.468 165.125 11.468C167.899 11.468 169.951 12.532 171.319 14.242V12ZM166.037 26.858C169.077 26.858 171.319 24.692 171.319 21.5C171.319 18.308 169.077 16.142 166.037 16.142C163.035 16.142 160.793 18.308 160.793 21.5C160.793 24.692 163.035 26.858 166.037 26.858Z" fill="#8895AA"/>
<path d="M144.15 11.468C149.242 11.468 153.422 15.838 153.422 21.5C153.422 27.162 149.242 31.532 144.15 31.532C141.376 31.532 139.362 30.506 137.994 28.758V38.6H133.092V12H137.994V14.242C139.362 12.494 141.376 11.468 144.15 11.468ZM143.238 26.858C146.278 26.858 148.52 24.692 148.52 21.5C148.52 18.308 146.278 16.142 143.238 16.142C140.236 16.142 137.994 18.308 137.994 21.5C137.994 24.692 140.236 26.858 143.238 26.858Z" fill="#8895AA"/>
<path d="M121.746 11.468C126.078 11.468 128.928 14.546 128.928 19.296V31H124.026V19.638C124.026 17.396 122.886 16.028 120.834 16.028C118.668 16.028 117.3 17.472 117.3 20.322V31H112.398V19.638C112.398 17.396 111.258 16.028 109.206 16.028C107.116 16.028 105.634 17.472 105.634 20.322V31H100.732V12H105.634V14.014C106.698 12.418 108.484 11.468 110.916 11.468C113.272 11.468 115.02 12.456 116.084 14.204C117.262 12.494 119.162 11.468 121.746 11.468Z" fill="#8895AA"/>
<path d="M87.2136 31.532C81.6276 31.532 77.1816 27.162 77.1816 21.5C77.1816 15.838 81.6276 11.468 87.2136 11.468C92.7996 11.468 97.2836 15.838 97.2836 21.5C97.2836 27.162 92.7996 31.532 87.2136 31.532ZM87.2136 26.744C90.1396 26.744 92.3816 24.578 92.3816 21.5C92.3816 18.422 90.1396 16.256 87.2136 16.256C84.3256 16.256 82.0836 18.422 82.0836 21.5C82.0836 24.578 84.3256 26.744 87.2136 26.744Z" fill="#8895AA"/>
<path d="M67.2859 31.532C61.5099 31.532 57.2539 27.162 57.2539 21.5C57.2539 15.838 61.5099 11.468 67.2859 11.468C71.0099 11.468 74.2399 13.444 75.7979 16.37L71.5799 18.84C70.8199 17.282 69.1859 16.294 67.2479 16.294C64.3219 16.294 62.1559 18.46 62.1559 21.5C62.1559 24.502 64.3219 26.668 67.2479 26.668C69.2239 26.668 70.8579 25.718 71.6179 24.16L75.8739 26.592C74.2399 29.556 71.0099 31.532 67.2859 31.532Z" fill="#8895AA"/>
<path fill-rule="evenodd" clip-rule="evenodd" d="M15.4197 0.904297C13.7801 0.904297 12.451 2.23342 12.451 3.87297V13.1453H3.00774C1.36818 13.1453 0.0390625 14.4744 0.0390625 16.114V38.002C0.0390625 39.6416 1.36818 40.9707 3.00774 40.9707H24.6358C26.2753 40.9707 27.6045 39.6416 27.6045 38.002V28.7297H37.0477C38.6873 28.7297 40.0164 27.4006 40.0164 25.7611V3.87297C40.0164 2.23342 38.6873 0.904297 37.0477 0.904297H15.4197ZM27.6045 28.7297V16.114C27.6045 14.4744 26.2753 13.1453 24.6358 13.1453H12.451V25.7611C12.451 27.4006 13.7801 28.7297 15.4197 28.7297H27.6045Z" fill="#8895AA"/>
</svg>
