<svg width="118" height="32" viewBox="0 0 118 32" fill="none" xmlns="http://www.w3.org/2000/svg">
<path d="M104.675 24.383C103.574 23.722 102.692 22.8407 102.031 21.739C101.37 20.6373 101.067 19.4254 101.067 18.1034C101.067 16.8089 101.37 15.597 102.031 14.4953C102.692 13.3936 103.574 12.5122 104.675 11.8512C105.777 11.1902 106.989 10.8597 108.311 10.8597C109.606 10.8597 110.817 11.1902 111.919 11.8512C113.021 12.5122 113.902 13.3936 114.563 14.4953C115.224 15.597 115.555 16.8089 115.555 18.1034C115.555 19.4254 115.224 20.6373 114.563 21.739C113.902 22.8407 113.021 23.722 111.919 24.383C110.817 25.044 109.606 25.347 108.311 25.347C106.989 25.347 105.777 25.044 104.675 24.383ZM110.211 21.436C110.79 21.1055 111.258 20.6373 111.616 20.0313C111.947 19.4529 112.139 18.8195 112.139 18.1034C112.139 17.4148 111.947 16.7813 111.616 16.1754C111.258 15.597 110.79 15.1288 110.211 14.7707C109.606 14.4402 108.972 14.2474 108.283 14.2474C107.567 14.2474 106.934 14.4402 106.356 14.7707C105.75 15.1288 105.281 15.597 104.951 16.1754C104.62 16.7813 104.455 17.4148 104.455 18.1034C104.455 18.8195 104.62 19.4529 104.951 20.0313C105.281 20.6373 105.75 21.1055 106.356 21.436C106.934 21.7665 107.567 21.9318 108.283 21.9318C108.972 21.9318 109.606 21.7665 110.211 21.436Z" fill="#E4E7EC"/>
<path d="M96.0411 8.38088C95.6555 8.05037 95.4902 7.55461 95.4902 6.94868C95.4902 6.34274 95.6555 5.84698 96.0411 5.48893C96.3991 5.15842 96.8949 4.96562 97.5559 4.96562C98.1894 4.96562 98.6852 5.15842 99.0708 5.48893C99.4288 5.84698 99.6216 6.34274 99.6216 6.94868C99.6216 7.55461 99.4288 8.02283 99.0432 8.38088C98.6576 8.73893 98.1619 8.90419 97.5559 8.90419C96.8949 8.90419 96.3991 8.73893 96.0411 8.38088ZM95.8207 24.9614V11.1902H99.236V24.9614H95.8207Z" fill="#E4E7EC"/>
<path d="M89.1389 5.68173H92.5542V24.9614H89.1389V23.6394C88.5054 24.1902 87.8169 24.6309 87.0457 24.9064C86.2745 25.2093 85.4758 25.347 84.6495 25.347C83.2448 25.347 82.0329 25.0441 80.9863 24.4106C79.9397 23.8047 79.1134 22.9233 78.5626 21.8216C78.0118 20.7199 77.7363 19.4805 77.7363 18.1034C77.7363 16.7262 78.0118 15.4868 78.5626 14.3851C79.1134 13.2834 79.9397 12.4296 80.9863 11.7962C82.0329 11.1627 83.2448 10.8322 84.6495 10.8322C85.4758 10.8322 86.2469 10.9974 87.0181 11.3004C87.7893 11.6034 88.4779 12.0165 89.1389 12.5398V5.68173ZM87.1283 21.5737C87.7342 21.2432 88.23 20.7474 88.588 20.1415C88.9461 19.5356 89.1389 18.847 89.1389 18.0758C89.1389 16.919 88.7258 15.9826 87.9546 15.239C87.1834 14.5229 86.2194 14.1373 85.0902 14.1373C83.9334 14.1373 82.9694 14.5229 82.2257 15.2665C81.4821 16.0101 81.124 16.9466 81.124 18.1034C81.124 19.2602 81.4821 20.2241 82.2257 20.9678C82.9694 21.7114 83.9334 22.0695 85.0902 22.0695C85.8338 22.0695 86.5224 21.9042 87.1283 21.5737Z" fill="#E4E7EC"/>
<path d="M72.2326 11.1902H75.6478V24.9614H72.2326V23.8046C71.7368 24.2729 71.1859 24.6309 70.58 24.9063C69.9741 25.1818 69.3131 25.3195 68.652 25.3195C67.8258 25.3195 66.9995 25.1542 66.1732 24.8237C65.3469 24.4932 64.6308 23.8597 64.0249 22.9784C63.419 22.097 63.1436 20.9127 63.1436 19.4254V11.1902H66.5588V19.4254C66.5588 20.472 66.8342 21.2157 67.4126 21.6563C67.991 22.097 68.6796 22.3174 69.4508 22.3174C70.222 22.3174 70.8554 22.0695 71.4063 21.5186C71.9571 20.9678 72.2326 20.114 72.2326 18.9021V11.1902Z" fill="#E4E7EC"/>
<path d="M58.5748 21.5462C58.8502 21.794 59.3185 21.9042 59.9795 21.9042C60.3651 21.9042 60.7782 21.8767 61.2464 21.8216V24.9614C60.3651 25.0716 59.649 25.0991 59.0981 25.0991C57.6108 25.0991 56.5091 24.7686 55.793 24.1076C55.0769 23.4466 54.7189 22.2347 54.7189 20.472V14.2474H52.1299V11.1902H54.7189V7.80249L58.1341 6.64571V11.1902H61.1913V14.2474H58.1341V20.2517C58.1341 20.8851 58.2718 21.3258 58.5748 21.5462Z" fill="#E4E7EC"/>
<path d="M44.1541 15.9275C44.5948 16.1203 45.2833 16.3131 46.2198 16.5059C47.2664 16.7262 48.1753 16.9741 48.8914 17.2495C49.6075 17.525 50.2134 17.9656 50.7367 18.5716C51.26 19.1775 51.5354 19.9762 51.5354 20.9678C51.5354 21.8767 51.26 22.6479 50.7092 23.3089C50.1583 23.9699 49.4422 24.4932 48.5609 24.8237C47.652 25.1542 46.6604 25.3195 45.6138 25.3195C44.1541 25.3195 42.9147 25.044 41.8681 24.4932C40.8214 23.9423 40.0778 23.1712 39.582 22.1245L42.3914 20.6648C42.8871 21.9318 43.9613 22.5652 45.6138 22.5652C46.3299 22.5652 46.9359 22.4275 47.4592 22.1521C47.9549 21.8767 48.2304 21.4911 48.2304 20.9678C48.2304 20.5271 47.9825 20.2241 47.5143 20.0038C47.046 19.7834 46.3024 19.5631 45.2558 19.2877C44.1541 19.0398 43.2727 18.7919 42.6117 18.5165C41.9231 18.2686 41.3447 17.883 40.849 17.3322C40.3532 16.7813 40.1053 16.0652 40.1053 15.1563C40.1053 14.275 40.3532 13.5313 40.849 12.8703C41.3447 12.2093 42.0058 11.7135 42.8596 11.3555C43.6859 11.0249 44.6223 10.8322 45.6414 10.8322C46.8257 10.8322 47.8998 11.08 48.8363 11.5758C49.7727 12.0716 50.5164 12.7877 51.0397 13.6966L48.2579 15.1012C47.7621 14.0822 46.9083 13.5589 45.6414 13.5589C44.9803 13.5589 44.4846 13.6966 44.099 13.972C43.7134 14.2474 43.5206 14.6055 43.5206 15.0461C43.5206 15.4317 43.7134 15.7347 44.1541 15.9275Z" fill="#E4E7EC"/>
<mask id="mask0_3778_20213" style="mask-type:alpha" maskUnits="userSpaceOnUse" x="0" y="0" width="32" height="31">
<circle cx="15.8844" cy="15.4125" r="15.3013" fill="#D9D9D9"/>
</mask>
<g mask="url(#mask0_3778_20213)">
<rect x="-3.49121" y="19.352" width="15.9806" height="15.9806" rx="1.68175" transform="rotate(-15 -3.49121 19.352)" fill="#E4E7EC"/>
<rect x="15.6875" y="19.352" width="15.9806" height="15.9806" rx="1.68175" transform="rotate(-15 15.6875 19.352)" fill="#E4E7EC"/>
<rect x="15.6875" y="0.172852" width="15.9806" height="15.9806" rx="1.68175" transform="rotate(-15 15.6875 0.172852)" fill="#E4E7EC"/>
<rect x="-3.49121" y="0.172852" width="15.9806" height="15.9806" rx="1.68175" transform="rotate(-15 -3.49121 0.172852)" fill="#E4E7EC"/>
</g>
</svg>
