<svg width="193" height="46" viewBox="0 0 193 46" fill="none" xmlns="http://www.w3.org/2000/svg">
<path d="M181.538 35.4114C179.535 35.4114 177.78 34.9862 176.271 34.1357C174.762 33.2578 173.596 32.0369 172.773 30.4731C171.95 28.9093 171.538 27.0711 171.538 24.9586C171.538 22.8736 171.95 21.0491 172.773 19.4854C173.596 17.8941 174.762 16.6595 176.271 15.7816C177.78 14.8763 179.535 14.4236 181.538 14.4236C183.568 14.4236 185.324 14.8763 186.806 15.7816C188.315 16.687 189.481 17.9353 190.304 19.5265C191.127 21.0903 191.538 22.8873 191.538 24.9175C191.538 25.2193 191.525 25.5211 191.497 25.8229C191.497 26.0972 191.47 26.3304 191.415 26.5224H175.941V22.4895H187.341L186.518 24.4237C186.518 22.7227 186.106 21.3372 185.283 20.2673C184.487 19.1973 183.239 18.6623 181.538 18.6623C180.057 18.6623 178.863 19.1287 177.958 20.0615C177.053 20.9668 176.6 22.1877 176.6 23.7241V25.9052C176.6 27.5238 177.053 28.7996 177.958 29.7323C178.891 30.6377 180.153 31.0904 181.744 31.0904C183.143 31.0904 184.241 30.8023 185.036 30.2262C185.832 29.65 186.518 28.9367 187.094 28.0862L190.839 30.2262C189.933 31.8997 188.699 33.1892 187.135 34.0945C185.599 34.9724 183.733 35.4114 181.538 35.4114Z" fill="#8895AA"/>
<path d="M162.979 14.8763L164.337 20.4319V34.9999H158.946V14.8763H162.979ZM163.226 23.1891L162.239 22.7364V18.6211L162.609 18.1685C162.911 17.6746 163.363 17.1397 163.967 16.5635C164.598 15.9874 165.311 15.4935 166.107 15.082C166.93 14.6431 167.78 14.4236 168.658 14.4236C169.097 14.4236 169.495 14.451 169.852 14.5059C170.208 14.5608 170.483 14.6568 170.675 14.794V19.6911H169.358C167.575 19.6911 166.203 19.9792 165.243 20.5553C164.282 21.104 163.61 21.9819 163.226 23.1891Z" fill="#8895AA"/>
<path d="M142.867 35.4939C141.358 35.4939 140.151 35.2607 139.245 34.7943C138.34 34.3279 137.64 33.7106 137.147 32.9425C136.68 32.1468 136.365 31.2415 136.2 30.2264C136.035 29.2113 135.953 28.155 135.953 27.0576V14.8765H141.344V27.0988C141.344 28.3334 141.605 29.1564 142.126 29.5679C142.675 29.9795 143.319 30.1852 144.06 30.1852C144.746 30.1852 145.432 30.0618 146.118 29.8149C146.804 29.5679 147.448 29.2113 148.052 28.7449C148.683 28.2511 149.204 27.6886 149.616 27.0576L150.274 29.8972H148.957V14.8765H154.348V35.0001H150.315L149.204 31.1729L150.933 31.214C150.247 32.0097 149.465 32.7367 148.587 33.3951C147.736 34.0536 146.817 34.5748 145.83 34.9589C144.87 35.3156 143.882 35.4939 142.867 35.4939Z" fill="#8895AA"/>
<path d="M128.843 35.3703C126.786 35.3703 125.153 34.8354 123.946 33.7654C122.766 32.668 122.176 30.9259 122.176 28.539V15.1233L122.094 14.8763L123.205 10.1438H127.567V27.6748C127.567 28.5527 127.773 29.1974 128.185 29.609C128.624 29.9931 129.172 30.1851 129.831 30.1851C130.27 30.1851 130.668 30.1577 131.024 30.1028C131.381 30.0205 131.696 29.9382 131.971 29.8559V34.8765C131.532 35.0411 131.065 35.1646 130.572 35.2469C130.078 35.3292 129.502 35.3703 128.843 35.3703ZM119.049 19.8558V14.8763H131.971V19.8558H119.049Z" fill="#8895AA"/>
<path d="M109.839 14.4236C111.211 14.4236 112.308 14.6568 113.131 15.1232C113.982 15.5896 114.613 16.2206 115.024 17.0162C115.463 17.8118 115.751 18.7172 115.889 19.7323C116.026 20.7199 116.094 21.7487 116.094 22.8187V34.9999H110.703V22.7776C110.703 21.543 110.456 20.7199 109.963 20.3084C109.496 19.8969 108.893 19.6911 108.152 19.6911C107.466 19.6911 106.766 19.8283 106.053 20.1026C105.34 20.3496 104.668 20.7199 104.037 21.2138C103.433 21.6802 102.912 22.2151 102.473 22.8187L101.773 20.0203H103.131V34.9999H97.7402V14.8763H101.773L102.884 18.7446L101.156 18.6623C101.869 17.8392 102.679 17.1122 103.584 16.4812C104.517 15.8502 105.504 15.3564 106.547 14.9997C107.589 14.6156 108.687 14.4236 109.839 14.4236Z" fill="#8895AA"/>
<path d="M84.4434 35.4114C82.4407 35.4114 80.6848 34.9862 79.1759 34.1357C77.667 33.2578 76.501 32.0369 75.6779 30.4731C74.8549 28.9093 74.4434 27.0711 74.4434 24.9586C74.4434 22.8736 74.8549 21.0491 75.6779 19.4854C76.501 17.8941 77.667 16.6595 79.1759 15.7816C80.6848 14.8763 82.4407 14.4236 84.4434 14.4236C86.4736 14.4236 88.2295 14.8763 89.711 15.7816C91.2199 16.687 92.3859 17.9353 93.2089 19.5265C94.032 21.0903 94.4435 22.8873 94.4435 24.9175C94.4435 25.2193 94.4298 25.5211 94.4024 25.8229C94.4024 26.0972 94.3749 26.3304 94.3201 26.5224H78.8467V22.4895H90.246L89.4229 24.4237C89.4229 22.7227 89.0114 21.3372 88.1883 20.2673C87.3927 19.1973 86.1444 18.6623 84.4434 18.6623C82.9619 18.6623 81.7685 19.1287 80.8632 20.0615C79.9578 20.9668 79.5051 22.1877 79.5051 23.7241V25.9052C79.5051 27.5238 79.9578 28.7996 80.8632 29.7323C81.796 30.6377 83.058 31.0904 84.6492 31.0904C86.0484 31.0904 87.1458 30.8023 87.9414 30.2262C88.737 29.65 89.4229 28.9367 89.999 28.0862L93.7439 30.2262C92.8386 31.8997 91.604 33.1892 90.0402 34.0945C88.5038 34.9724 86.6382 35.4114 84.4434 35.4114Z" fill="#8895AA"/>
<path d="M73.6183 14.8765L66.252 35.0001H61.0668L53.3301 14.8765H59.0091L64.2767 30.2675H63.0009L68.0627 14.8765H73.6183Z" fill="#8895AA"/>
<path fill-rule="evenodd" clip-rule="evenodd" d="M14.6032 3C13.9019 3 13.3333 3.56853 13.3333 4.26984L13.3333 16.3333C5.96954 16.3333 0 22.3029 0 29.6667C0 37.0305 5.96953 43 13.3333 43H25.3968C26.0981 43 26.6667 42.4315 26.6667 41.7302L26.6667 29.6667C34.0305 29.6667 40 23.6971 40 16.3333C40 8.96954 34.0305 3 26.6667 3H14.6032ZM26.6667 29.6667L26.6667 17.6032C26.6667 16.9019 26.0981 16.3333 25.3968 16.3333H13.3333L13.3333 28.3968C13.3333 29.0981 13.9019 29.6667 14.6032 29.6667H26.6667Z" fill="#8895AA"/>
<path d="M14.4598 3C13.8375 3 13.333 3.50447 13.333 4.12676L13.333 16.3333H25.5396C26.1619 16.3333 26.6663 16.8378 26.6663 17.4601L26.6663 29.6667C34.0301 29.6667 39.9997 23.6971 39.9997 16.3333C39.9997 8.96954 34.0301 3 26.6663 3H14.4598Z" fill="#8895AA"/>
</svg>
