<svg width="170" height="34" viewBox="0 0 170 34" fill="none" xmlns="http://www.w3.org/2000/svg">
<path d="M164.167 10.8586H168.179L162.888 25.3948C161.376 29.5813 158.905 31.4129 155.213 31.2093V27.7206C157.277 27.7497 158.324 26.8775 159.021 24.9297L153.062 10.8586H157.161L160.94 20.6269L164.167 10.8586Z" fill="#E4E7EC"/>
<path d="M146.305 10.4515C149.387 10.4515 151.8 12.6029 151.8 16.4696V25.3948H148.049V16.9347C148.049 14.9578 146.857 13.9402 145.171 13.9402C143.339 13.9402 141.973 15.0159 141.973 17.5452V25.3948H138.223V10.8586H141.973V12.4866C142.845 11.1784 144.357 10.4515 146.305 10.4515Z" fill="#E4E7EC"/>
<path d="M131.071 10.8586H134.821V25.3948H131.071V23.6796C130.024 24.9878 128.455 25.8019 126.332 25.8019C122.466 25.8019 119.268 22.4585 119.268 18.1267C119.268 13.7949 122.466 10.4515 126.332 10.4515C128.455 10.4515 130.024 11.2656 131.071 12.5738V10.8586ZM127.03 22.2259C129.356 22.2259 131.071 20.5688 131.071 18.1267C131.071 15.6846 129.356 14.0275 127.03 14.0275C124.733 14.0275 123.018 15.6846 123.018 18.1267C123.018 20.5688 124.733 22.2259 127.03 22.2259Z" fill="#E4E7EC"/>
<path d="M110.285 10.4515C114.181 10.4515 117.379 13.7949 117.379 18.1267C117.379 22.4585 114.181 25.8019 110.285 25.8019C108.163 25.8019 106.622 25.0169 105.576 23.6796V31.2093H101.825V10.8586H105.576V12.5738C106.622 11.2365 108.163 10.4515 110.285 10.4515ZM109.588 22.2259C111.913 22.2259 113.629 20.5688 113.629 18.1267C113.629 15.6846 111.913 14.0275 109.588 14.0275C107.291 14.0275 105.576 15.6846 105.576 18.1267C105.576 20.5688 107.291 22.2259 109.588 22.2259Z" fill="#E4E7EC"/>
<path d="M93.1445 10.4515C96.4588 10.4515 98.6392 12.8064 98.6392 16.4405V25.3948H94.8889V16.7021C94.8889 14.9869 94.0167 13.9402 92.4468 13.9402C90.7896 13.9402 89.743 15.045 89.743 17.2254V25.3948H85.9927V16.7021C85.9927 14.9869 85.1205 13.9402 83.5506 13.9402C81.9516 13.9402 80.8177 15.045 80.8177 17.2254V25.3948H77.0674V10.8586H80.8177V12.3994C81.6318 11.1784 82.9982 10.4515 84.8588 10.4515C86.6613 10.4515 87.9987 11.2074 88.8127 12.5448C89.7139 11.2365 91.1676 10.4515 93.1445 10.4515Z" fill="#E4E7EC"/>
<path d="M66.725 25.8019C62.4513 25.8019 59.0498 22.4585 59.0498 18.1267C59.0498 13.7949 62.4513 10.4515 66.725 10.4515C70.9986 10.4515 74.4292 13.7949 74.4292 18.1267C74.4292 22.4585 70.9986 25.8019 66.725 25.8019ZM66.725 22.1387C68.9635 22.1387 70.6788 20.4816 70.6788 18.1267C70.6788 15.7718 68.9635 14.1147 66.725 14.1147C64.5154 14.1147 62.8002 15.7718 62.8002 18.1267C62.8002 20.4816 64.5154 22.1387 66.725 22.1387Z" fill="#E4E7EC"/>
<path d="M51.4789 25.8019C47.0598 25.8019 43.8037 22.4585 43.8037 18.1267C43.8037 13.7949 47.0598 10.4515 51.4789 10.4515C54.328 10.4515 56.7991 11.9633 57.9911 14.2019L54.7641 16.0916C54.1826 14.8996 52.9325 14.1438 51.4498 14.1438C49.2112 14.1438 47.5541 15.8009 47.5541 18.1267C47.5541 20.4234 49.2112 22.0806 51.4498 22.0806C52.9616 22.0806 54.2117 21.3537 54.7931 20.1618L58.0493 22.0224C56.7991 24.2901 54.328 25.8019 51.4789 25.8019Z" fill="#E4E7EC"/>
<path fill-rule="evenodd" clip-rule="evenodd" d="M11.7966 2.30304C10.5423 2.30304 9.5254 3.31991 9.5254 4.57427V11.6682H2.30053C1.04616 11.6682 0.0292969 12.6851 0.0292969 13.9395V30.6853C0.0292969 31.9397 1.04617 32.9566 2.30053 32.9566H18.8474C20.1018 32.9566 21.1187 31.9397 21.1187 30.6853V23.5914H28.3435C29.5979 23.5914 30.6148 22.5745 30.6148 21.3201V4.57427C30.6148 3.31991 29.5979 2.30304 28.3435 2.30304H11.7966ZM21.1187 23.5914V13.9395C21.1187 12.6851 20.1018 11.6682 18.8474 11.6682H9.5254V21.3201C9.5254 22.5745 10.5423 23.5914 11.7966 23.5914H21.1187Z" fill="#E4E7EC"/>
</svg>
